<svg xmlns="http://www.w3.org/2000/svg" viewBox="0 0 800 160">
  <defs>
    <linearGradient id="bg" x1="0%" y1="0%" x2="100%" y2="100%">
      <stop offset="0%" style="stop-color:#1a1a2e;stop-opacity:1" />
      <stop offset="100%" style="stop-color:#16213e;stop-opacity:1" />
    </linearGradient>
    <radialGradient id="headGrad" cx="45%" cy="40%" r="60%">
      <stop offset="0%" style="stop-color:#FF6314;stop-opacity:1" />
      <stop offset="100%" style="stop-color:#FF4500;stop-opacity:1" />
    </radialGradient>
  </defs>

  <!-- Background -->
  <rect width="800" height="160" rx="12" fill="url(#bg)"/>

  <!-- Snoo head only — centered vertically, left side -->
  <g transform="translate(78, 82)">

    <!-- Antenna base on head -->
    <line x1="0" y1="-46" x2="10" y2="-64" stroke="#FF4500" stroke-width="3" stroke-linecap="round"/>
    <!-- Antenna ball (small circle at top) -->
    <circle cx="11" cy="-67" r="5.5" fill="#FF4500"/>
    <circle cx="11" cy="-67" r="2.5" fill="#FF6B35"/>

    <!-- Main head shape — big round circle like Snoo -->
    <circle cx="0" cy="-16" r="46" fill="url(#headGrad)"/>

    <!-- Ears (rounded bumps on sides) -->
    <circle cx="-44" cy="-20" r="12" fill="#FF4500"/>
    <circle cx="44" cy="-20" r="12" fill="#FF4500"/>
    <!-- Inner ear -->
    <circle cx="-44" cy="-20" r="6" fill="#C0392b" opacity="0.5"/>
    <circle cx="44" cy="-20" r="6" fill="#C0392b" opacity="0.5"/>

    <!-- Helmet / visor dome — the signature feature of Snoo -->
    <!-- Outer dome rim -->
    <ellipse cx="0" cy="-28" rx="36" ry="28" fill="none" stroke="white" stroke-width="3" opacity="0.25"/>
    <!-- Inner dome tint -->
    <ellipse cx="0" cy="-28" rx="33" ry="25" fill="white" opacity="0.07"/>
    <!-- Dome shine highlight -->
    <ellipse cx="-8" cy="-42" rx="10" ry="6" fill="white" opacity="0.15" transform="rotate(-20, -8, -42)"/>

    <!-- White face area -->
    <ellipse cx="0" cy="-6" rx="30" ry="24" fill="white"/>

    <!-- Eyes — big oval Snoo eyes -->
    <ellipse cx="-11" cy="-12" rx="8" ry="9" fill="white" stroke="#ddd" stroke-width="0.5"/>
    <ellipse cx="11" cy="-12" rx="8" ry="9" fill="white" stroke="#ddd" stroke-width="0.5"/>
    <!-- Pupils — signature red/orange -->
    <circle cx="-10" cy="-12" r="5" fill="#FF4500"/>
    <circle cx="12" cy="-12" r="5" fill="#FF4500"/>
    <!-- Pupil shine -->
    <circle cx="-8" cy="-15" r="1.8" fill="white"/>
    <circle cx="14" cy="-15" r="1.8" fill="white"/>

    <!-- Smile — simple curved line -->
    <path d="M -10 4 Q 0 12 10 4" stroke="#FF4500" stroke-width="2.5" fill="none" stroke-linecap="round"/>

    <!-- Nose — tiny dot -->
    <circle cx="0" cy="0" r="1.5" fill="#FF6B35" opacity="0.6"/>

  </g>

  <!-- Title -->
  <text x="152" y="66" font-family="'Segoe UI', system-ui, sans-serif" font-size="46" font-weight="800" fill="white" letter-spacing="-1">Reddit</text>
  <text x="152" y="66" font-family="'Segoe UI', system-ui, sans-serif" font-size="46" font-weight="800" letter-spacing="-1" fill="#FF4500" dx="153"> MCP</text>

  <!-- Tagline -->
  <text x="152" y="98" font-family="'Segoe UI', system-ui, sans-serif" font-size="15" fill="#8892b0" letter-spacing="0.3">Trend intelligence for AI assistants · No auth required</text>

  <!-- Badges -->
  <rect x="152" y="114" width="136" height="26" rx="5" fill="#FF4500" opacity="0.12"/>
  <text x="220" y="132" font-family="'Segoe UI', system-ui, sans-serif" font-size="12" fill="#FF6314" text-anchor="middle" font-weight="600">Model Context Protocol</text>

  <rect x="298" y="114" width="64" height="26" rx="5" fill="#00ADD8" opacity="0.12"/>
  <text x="330" y="132" font-family="'Segoe UI', system-ui, sans-serif" font-size="12" fill="#00ADD8" text-anchor="middle" font-weight="600">Go 1.24+</text>

  <rect x="372" y="114" width="84" height="26" rx="5" fill="#64ffda" opacity="0.08"/>
  <text x="414" y="132" font-family="'Segoe UI', system-ui, sans-serif" font-size="12" fill="#64ffda" text-anchor="middle" font-weight="600">No Auth Needed</text>

  <!-- Subtle glow -->
  <circle cx="730" cy="30" r="70" fill="#FF4500" opacity="0.03"/>
  <circle cx="770" cy="140" r="45" fill="#FF6314" opacity="0.04"/>
</svg>
