<svg xmlns="http://www.w3.org/2000/svg" viewBox="0 0 800 160">
  <defs>
    <linearGradient id="bg" x1="0%" y1="0%" x2="100%" y2="100%">
      <stop offset="0%" style="stop-color:#1a1a2e;stop-opacity:1" />
      <stop offset="100%" style="stop-color:#16213e;stop-opacity:1" />
    </linearGradient>
  </defs>

  <rect width="800" height="160" rx="12" fill="url(#bg)"/>

  <g transform="translate(78, 88)">

    <!-- Antenna -->
    <line x1="4" y1="-58" x2="16" y2="-76" stroke="#FF4500" stroke-width="3.5" stroke-linecap="round"/>
    <circle cx="18" cy="-79" r="6" fill="#FF4500"/>

    <!-- Ears (orange nubs on sides) -->
    <circle cx="-46" cy="-22" r="11" fill="#FF4500"/>
    <circle cx="46" cy="-22" r="11" fill="#FF4500"/>

    <!-- Main head — white, big circle -->
    <circle cx="0" cy="-18" r="44" fill="white"/>

    <!-- Orange helmet/visor band across forehead -->
    <path d="M -44 -30 Q -42 -62 0 -62 Q 42 -62 44 -30 Q 30 -20 0 -20 Q -30 -20 -44 -30 Z" fill="#FF4500"/>

    <!-- Eyes — big red ovals, the most iconic part -->
    <ellipse cx="-13" cy="-14" rx="10" ry="12" fill="#FF4500"/>
    <ellipse cx="13" cy="-14" rx="10" ry="12" fill="#FF4500"/>
    <!-- Eye shine -->
    <circle cx="-10" cy="-19" r="3" fill="white" opacity="0.5"/>
    <circle cx="16" cy="-19" r="3" fill="white" opacity="0.5"/>

    <!-- Smile -->
    <path d="M -14 4 Q 0 14 14 4" stroke="#FF4500" stroke-width="2.5" fill="none" stroke-linecap="round"/>

  </g>

  <!-- Title -->
  <text x="152" y="66" font-family="'Segoe UI', system-ui, sans-serif" font-size="46" font-weight="800" fill="white" letter-spacing="-1">Reddit</text>
  <text x="305" y="66" font-family="'Segoe UI', system-ui, sans-serif" font-size="46" font-weight="800" fill="#FF4500" letter-spacing="-1"> MCP</text>

  <!-- Tagline -->
  <text x="152" y="98" font-family="'Segoe UI', system-ui, sans-serif" font-size="15" fill="#8892b0" letter-spacing="0.3">Trend intelligence for AI assistants · No auth required</text>

  <!-- Badges -->
  <rect x="152" y="114" width="136" height="26" rx="5" fill="#FF4500" opacity="0.12"/>
  <text x="220" y="132" font-family="'Segoe UI', system-ui, sans-serif" font-size="12" fill="#FF6314" text-anchor="middle" font-weight="600">Model Context Protocol</text>

  <rect x="298" y="114" width="64" height="26" rx="5" fill="#00ADD8" opacity="0.12"/>
  <text x="330" y="132" font-family="'Segoe UI', system-ui, sans-serif" font-size="12" fill="#00ADD8" text-anchor="middle" font-weight="600">Go 1.24+</text>

  <rect x="372" y="114" width="84" height="26" rx="5" fill="#64ffda" opacity="0.08"/>
  <text x="414" y="132" font-family="'Segoe UI', system-ui, sans-serif" font-size="12" fill="#64ffda" text-anchor="middle" font-weight="600">No Auth Needed</text>

  <circle cx="730" cy="30" r="70" fill="#FF4500" opacity="0.03"/>
</svg>
