<svg xmlns="http://www.w3.org/2000/svg" viewBox="0 0 1280 640" width="1280" height="640">
  <defs>
    <linearGradient id="bg" x1="0%" y1="0%" x2="100%" y2="0%">
      <stop offset="0%" style="stop-color:#fdf6ee;stop-opacity:1" />
      <stop offset="100%" style="stop-color:#faeee0;stop-opacity:1" />
    </linearGradient>
  </defs>

  <!-- Background -->
  <rect width="1280" height="640" fill="url(#bg)"/>

  <!-- ========== SNOO (left side, centered) ========== -->
  <!-- Orange circle -->
  <circle cx="260" cy="320" r="210" fill="#FF4500"/>
  <!-- Snoo icon scaled up inside circle -->
  <g transform="translate(260,320) scale(1.55) translate(-128,-128)">
    <path fill="white" d="m154.04,60.36c2.22,9.41,10.67,16.42,20.76,16.42,11.78,0,21.33-9.55,21.33-21.33s-9.55-21.33-21.33-21.33c-10.3,0-18.89,7.3-20.89,17.01-17.25,1.85-30.72,16.48-30.72,34.21,0,.04,0,.07,0,.11-18.76.79-35.89,6.13-49.49,14.56-5.05-3.91-11.39-6.24-18.27-6.24-16.51,0-29.89,13.38-29.89,29.89,0,11.98,7.04,22.3,17.21,27.07.99,34.7,38.8,62.61,85.31,62.61s84.37-27.94,85.31-62.67c10.09-4.8,17.07-15.09,17.07-27,0-16.51-13.38-29.89-29.89-29.89-6.85,0-13.16,2.31-18.2,6.19-13.72-8.49-31.04-13.83-49.99-14.54,0-.03,0-.05,0-.08,0-12.7,9.44-23.24,21.68-24.97Zm-81.54,82.27c.5-10.84,7.7-19.16,16.07-19.16s14.77,8.79,14.27,19.63c-.5,10.84-6.75,14.78-15.13,14.78s-15.71-4.41-15.21-15.25Zm95.06-19.16c8.38,0,15.58,8.32,16.07,19.16.5,10.84-6.84,15.25-15.21,15.25s-14.63-3.93-15.13-14.78c-.5-10.84,5.89-19.63,14.27-19.63Zm-9.96,44.24c1.57.16,2.57,1.79,1.96,3.25-5.15,12.31-17.31,20.96-31.5,20.96s-26.34-8.65-31.5-20.96c-.61-1.46.39-3.09,1.96-3.25,9.2-.93,19.15-1.44,29.54-1.44s20.33.51,29.54,1.44Z"/>
  </g>

  <!-- Vertical divider -->
  <line x1="530" y1="80" x2="530" y2="560" stroke="#e8d5c4" stroke-width="1.5"/>

  <!-- ========== TEXT (right side) ========== -->

  <!-- Title -->
  <text x="580" y="255"
        font-family="'Segoe UI', system-ui, sans-serif"
        font-size="100"
        font-weight="800"
        letter-spacing="-2"
        fill="#1a1a1a">Reddit</text>
  <text x="580" y="355"
        font-family="'Segoe UI', system-ui, sans-serif"
        font-size="100"
        font-weight="800"
        letter-spacing="-2"
        fill="#FF4500">MCP</text>

  <!-- Tagline -->
  <text x="584" y="410"
        font-family="'Segoe UI', system-ui, sans-serif"
        font-size="24"
        font-weight="400"
        fill="#8a5a3a">Reddit is cool. Get the trends straight to your AI.</text>

  <!-- Pills -->
  <!-- Discover -->
  <rect x="584" y="450" width="128" height="42" rx="6" fill="#FF4500" opacity="0.12"/>
  <text x="648" y="478"
        font-family="'Segoe UI', system-ui, sans-serif"
        font-size="20" font-weight="600" fill="#FF4500"
        text-anchor="middle">Discover</text>

  <!-- Trending -->
  <rect x="724" y="450" width="128" height="42" rx="6" fill="#FF4500" opacity="0.12"/>
  <text x="788" y="478"
        font-family="'Segoe UI', system-ui, sans-serif"
        font-size="20" font-weight="600" fill="#FF4500"
        text-anchor="middle">Trending</text>

  <!-- Search -->
  <rect x="864" y="450" width="106" height="42" rx="6" fill="#FF4500" opacity="0.12"/>
  <text x="917" y="478"
        font-family="'Segoe UI', system-ui, sans-serif"
        font-size="20" font-weight="600" fill="#FF4500"
        text-anchor="middle">Search</text>

  <!-- Analyze -->
  <rect x="982" y="450" width="114" height="42" rx="6" fill="#FF4500" opacity="0.12"/>
  <text x="1039" y="478"
        font-family="'Segoe UI', system-ui, sans-serif"
        font-size="20" font-weight="600" fill="#FF4500"
        text-anchor="middle">Analyze</text>

</svg>
